<?xml version="1.0" encoding="UTF-8" standalone="no"?>
<!-- Created with Inkscape (http://www.inkscape.org/) -->

<svg
   xmlns:dc="http://purl.org/dc/elements/1.1/"
   xmlns:cc="http://creativecommons.org/ns#"
   xmlns:rdf="http://www.w3.org/1999/02/22-rdf-syntax-ns#"
   xmlns:svg="http://www.w3.org/2000/svg"
   xmlns="http://www.w3.org/2000/svg"
   xmlns:xlink="http://www.w3.org/1999/xlink"
   xmlns:sodipodi="http://sodipodi.sourceforge.net/DTD/sodipodi-0.dtd"
   xmlns:inkscape="http://www.inkscape.org/namespaces/inkscape"
   width="96"
   height="96"
   viewBox="0 0 96 96.000004"
   id="svg2"
   version="1.1"
   inkscape:version="0.92.3 (unknown)"
   sodipodi:docname="logoSmall.svg">
  <defs
     id="defs4">
    <linearGradient
       inkscape:collect="always"
       id="linearGradient4382">
      <stop
         style="stop-color:#0000ff;stop-opacity:1"
         offset="0"
         id="stop4384" />
      <stop
         style="stop-color:#0000ff;stop-opacity:0"
         offset="1"
         id="stop4386" />
    </linearGradient>
    <linearGradient
       id="linearGradient4429"
       inkscape:collect="always">
      <stop
         id="stop4431"
         offset="0"
         style="stop-color:#ff0000;stop-opacity:1" />
      <stop
         id="stop4433"
         offset="1"
         style="stop-color:#ff0000;stop-opacity:0" />
    </linearGradient>
    <linearGradient
       inkscape:collect="always"
       id="linearGradient4399">
      <stop
         style="stop-color:#00ff00;stop-opacity:1"
         offset="0"
         id="stop4401" />
      <stop
         style="stop-color:#00ff00;stop-opacity:0"
         offset="1"
         id="stop4403" />
    </linearGradient>
    <linearGradient
       id="linearGradient4369"
       inkscape:collect="always">
      <stop
         id="stop4371"
         offset="0"
         style="stop-color:#ffff00;stop-opacity:1" />
      <stop
         id="stop4373"
         offset="1"
         style="stop-color:#ffff00;stop-opacity:0" />
    </linearGradient>
    <linearGradient
       id="linearGradient4339"
       inkscape:collect="always">
      <stop
         id="stop4341"
         offset="0"
         style="stop-color:#ff0000;stop-opacity:1" />
      <stop
         id="stop4343"
         offset="1"
         style="stop-color:#ff0000;stop-opacity:0" />
    </linearGradient>
    <linearGradient
       inkscape:collect="always"
       id="linearGradient4309">
      <stop
         style="stop-color:#ff00ff;stop-opacity:1"
         offset="0"
         id="stop4311" />
      <stop
         style="stop-color:#ff00ff;stop-opacity:0"
         offset="1"
         id="stop4313" />
    </linearGradient>
    <linearGradient
       id="linearGradient4279"
       inkscape:collect="always">
      <stop
         id="stop4281"
         offset="0"
         style="stop-color:#0000ff;stop-opacity:1" />
      <stop
         id="stop4283"
         offset="1"
         style="stop-color:#00ffff;stop-opacity:0" />
    </linearGradient>
    <linearGradient
       inkscape:collect="always"
       id="linearGradient4249">
      <stop
         style="stop-color:#00ffff;stop-opacity:1"
         offset="0"
         id="stop4251" />
      <stop
         style="stop-color:#00ffff;stop-opacity:0"
         offset="1"
         id="stop4253" />
    </linearGradient>
    <linearGradient
       id="linearGradient4220"
       inkscape:collect="always">
      <stop
         id="stop4222"
         offset="0"
         style="stop-color:#000000;stop-opacity:1" />
      <stop
         id="stop4224"
         offset="1"
         style="stop-color:#000000;stop-opacity:0" />
    </linearGradient>
    <linearGradient
       inkscape:collect="always"
       id="linearGradient4188">
      <stop
         style="stop-color:#0000ff;stop-opacity:1"
         offset="0"
         id="stop4190" />
      <stop
         style="stop-color:#ff00ff;stop-opacity:1"
         offset="1"
         id="stop4192" />
    </linearGradient>
    <linearGradient
       gradientTransform="matrix(5.3333129,0,0,3.9999941,-16.001777,956.36226)"
       inkscape:collect="always"
       xlink:href="#linearGradient4220"
       id="linearGradient4194-3"
       x1="12.000001"
       y1="22.000002"
       x2="12.000001"
       y2="10.000001"
       gradientUnits="userSpaceOnUse" />
    <linearGradient
       inkscape:collect="always"
       xlink:href="#linearGradient4249"
       id="linearGradient4241"
       x1="5.9999995"
       y1="1038.3622"
       x2="12"
       y2="1034.3622"
       gradientUnits="userSpaceOnUse"
       gradientTransform="matrix(5.3333125,0,0,3.9999941,-16.001769,-3157.0804)" />
    <linearGradient
       gradientTransform="matrix(5.3333125,0,0,3.9999941,-111.99772,-3157.0807)"
       inkscape:collect="always"
       xlink:href="#linearGradient4279"
       id="linearGradient4241-5"
       x1="14"
       y1="1038.3623"
       x2="12"
       y2="1034.3622"
       gradientUnits="userSpaceOnUse" />
    <linearGradient
       gradientTransform="matrix(5.3333125,0,0,3.9999942,-111.99772,-3157.0806)"
       inkscape:collect="always"
       xlink:href="#linearGradient4309"
       id="linearGradient4241-5-1"
       x1="10"
       y1="1038.3623"
       x2="12"
       y2="1034.3622"
       gradientUnits="userSpaceOnUse" />
    <linearGradient
       gradientTransform="matrix(5.3333125,0,0,3.9999941,-111.99772,-3157.0807)"
       inkscape:collect="always"
       xlink:href="#linearGradient4339"
       id="linearGradient4241-5-1-9"
       x1="6"
       y1="1034.3623"
       x2="12"
       y2="1034.3622"
       gradientUnits="userSpaceOnUse" />
    <linearGradient
       gradientTransform="matrix(5.3333125,0,0,3.9999941,-111.99772,-5117.8049)"
       inkscape:collect="always"
       xlink:href="#linearGradient4369"
       id="linearGradient4241-5-1-6"
       x1="10"
       y1="1038.3623"
       x2="12"
       y2="1034.3622"
       gradientUnits="userSpaceOnUse" />
    <linearGradient
       gradientTransform="matrix(5.3333125,0,0,3.9999941,-16.001769,-5117.8053)"
       inkscape:collect="always"
       xlink:href="#linearGradient4399"
       id="linearGradient4241-5-1-6-8"
       x1="10"
       y1="1038.3623"
       x2="12"
       y2="1034.3622"
       gradientUnits="userSpaceOnUse" />
    <linearGradient
       gradientTransform="matrix(5.3333129,0,0,3.9999941,-16.001777,956.36226)"
       inkscape:collect="always"
       xlink:href="#linearGradient4429"
       id="linearGradient4194-0"
       x1="18.000002"
       y1="10.000001"
       x2="12.000001"
       y2="10.000001"
       gradientUnits="userSpaceOnUse" />
    <linearGradient
       inkscape:collect="always"
       xlink:href="#linearGradient4188"
       id="linearGradient4194-6"
       x1="6.0000005"
       y1="10.000001"
       x2="12.000001"
       y2="10.000001"
       gradientUnits="userSpaceOnUse"
       gradientTransform="matrix(5.3333133,0,0,3.9999944,-16.001777,956.36226)" />
    <linearGradient
       gradientTransform="matrix(-1.3333334,0,0,0.9999992,44,1028.3622)"
       inkscape:collect="always"
       xlink:href="#linearGradient4382"
       id="linearGradient4194-0-1"
       x1="18.000002"
       y1="10.000001"
       x2="12.000001"
       y2="10.000001"
       gradientUnits="userSpaceOnUse" />
  </defs>
  <sodipodi:namedview
     id="base"
     pagecolor="#ffffff"
     bordercolor="#666666"
     borderopacity="1.0"
     inkscape:pageopacity="0.0"
     inkscape:pageshadow="2"
     inkscape:zoom="5.6568542"
     inkscape:cx="66.46351"
     inkscape:cy="63.367165"
     inkscape:document-units="px"
     inkscape:current-layer="layer1"
     showgrid="true"
     units="px"
     inkscape:window-width="1920"
     inkscape:window-height="1080"
     inkscape:window-x="0"
     inkscape:window-y="0"
     inkscape:window-maximized="1"
     showguides="false">
    <inkscape:grid
       type="xygrid"
       id="grid4136"
       spacingx="2"
       spacingy="2.0000001"
       empspacing="4" />
  </sodipodi:namedview>
  <metadata
     id="metadata7">
    <rdf:RDF>
      <cc:Work
         rdf:about="">
        <dc:format>image/svg+xml</dc:format>
        <dc:type
           rdf:resource="http://purl.org/dc/dcmitype/StillImage" />
        <dc:title></dc:title>
      </cc:Work>
    </rdf:RDF>
  </metadata>
  <g
     inkscape:label="Layer 1"
     inkscape:groupmode="layer"
     id="layer1"
     transform="translate(0,-956.3622)">
    <g
       id="g4408"
       transform="matrix(3.9999848,0,0,3.9999976,-0.001838,-3189.084)">
      <path
         inkscape:connector-curvature="0"
         id="path4182"
         d="m 1.999998,1054.3622 a 9.9999988,5.9999992 0 0 0 10,6 9.9999988,5.9999992 0 0 0 10,-6 h -4 a 5.9999992,1.9999998 0 0 1 -0.0293,0.1992 5.9999992,1.9999998 0 0 1 -0.08984,0.1973 5.9999992,1.9999998 0 0 1 -0.148437,0.1953 5.9999992,1.9999998 0 0 1 -0.207031,0.1875 5.9999992,1.9999998 0 0 1 -0.259766,0.1797 5.9999992,1.9999998 0 0 1 -0.314453,0.1699 5.9999992,1.9999998 0 0 1 -0.361328,0.1602 5.9999992,1.9999998 0 0 1 -0.410156,0.1464 5.9999992,1.9999998 0 0 1 -0.449219,0.1309 5.9999992,1.9999998 0 0 1 -0.488281,0.1172 5.9999992,1.9999998 0 0 1 -0.521485,0.1 5.9999992,1.9999998 0 0 1 -0.546875,0.08 5.9999992,1.9999998 0 0 1 -0.568359,0.064 5.9999992,1.9999998 0 0 1 -0.585938,0.043 5.9999992,1.9999998 0 0 1 -0.595703,0.023 5.9999992,1.9999998 0 0 1 -0.423828,0.01 5.9999992,1.9999998 0 0 1 -0.599609,-0.01 5.9999992,1.9999998 0 0 1 -0.591797,-0.029 5.9999992,1.9999998 0 0 1 -0.582032,-0.051 5.9999992,1.9999998 0 0 1 -0.5625,-0.068 5.9999992,1.9999998 0 0 1 -0.541015,-0.086 5.9999992,1.9999998 0 0 1 -0.511719,-0.1055 5.9999992,1.9999998 0 0 1 -0.476562,-0.1211 5.9999992,1.9999998 0 0 1 -0.439454,-0.1367 5.9999992,1.9999998 0 0 1 -0.394531,-0.1485 5.9999992,1.9999998 0 0 1 -0.349609,-0.164 5.9999992,1.9999998 0 0 1 -0.298828,-0.1738 5.9999992,1.9999998 0 0 1 -0.244141,-0.1817 5.9999992,1.9999998 0 0 1 -0.189453,-0.1894 5.9999992,1.9999998 0 0 1 -0.130859,-0.1954 5.9999992,1.9999998 0 0 1 -0.07227,-0.1992 5.9999992,1.9999998 0 0 1 -0.01563,-0.1406 h -4 z"
         style="opacity:1;fill:#000000;fill-opacity:1;stroke:none;stroke-width:4;stroke-linecap:round;stroke-linejoin:round;stroke-miterlimit:4;stroke-dasharray:none;stroke-dashoffset:0;stroke-opacity:1" />
      <ellipse
         ry="1.0000001"
         rx="2.0000002"
         cy="1054.3622"
         cx="19.999998"
         id="path4209-3"
         style="opacity:1;fill:#000000;fill-opacity:1;stroke:none;stroke-width:4;stroke-linecap:round;stroke-linejoin:round;stroke-miterlimit:4;stroke-dasharray:none;stroke-dashoffset:0;stroke-opacity:1" />
      <ellipse
         ry="1.0000002"
         rx="2.0000005"
         cy="1054.3622"
         cx="3.9999979"
         id="path4209-3-9"
         style="opacity:1;fill:#000000;fill-opacity:1;stroke:none;stroke-width:4;stroke-linecap:round;stroke-linejoin:round;stroke-miterlimit:4;stroke-dasharray:none;stroke-dashoffset:0;stroke-opacity:1" />
    </g>
    <path
       style="opacity:1;fill:url(#linearGradient4194-6);fill-opacity:1;stroke:none;stroke-width:4.00000048;stroke-linecap:round;stroke-linejoin:round;stroke-miterlimit:4;stroke-dasharray:none;stroke-dashoffset:0;stroke-opacity:1"
       d="m 15.998097,980.36224 v 47.99996 a 31.999876,15.999977 0 0 0 31.999883,16 31.999876,15.999977 0 0 0 31.99987,-16 v -47.99996 z"
       id="path4183-3"
       inkscape:connector-curvature="0" />
    <path
       style="fill:#000000;fill-opacity:1;fill-rule:evenodd;stroke:none;stroke-width:1.00000012;stroke-linecap:butt;stroke-linejoin:miter;stroke-miterlimit:4;stroke-dasharray:none;stroke-opacity:1"
       d="m 71.99788,996.36224 7.99997,-8 v 47.99996 l -7.99997,6 z"
       id="path4325"
       inkscape:connector-curvature="0"
       sodipodi:nodetypes="ccccc" />
    <path
       inkscape:connector-curvature="0"
       style="opacity:1;fill:url(#linearGradient4194-0);fill-opacity:1;stroke:none;stroke-width:2;stroke-linecap:round;stroke-linejoin:round;stroke-miterlimit:4;stroke-dasharray:none;stroke-dashoffset:0;stroke-opacity:1"
       d="m 15.998097,980.36224 v 47.99996 a 31.999876,15.999977 0 0 0 31.999873,16 31.999876,15.999977 0 0 0 31.99988,-16 v -47.99996 z"
       id="path4183-7" />
    <path
       style="opacity:1;fill:#000000;fill-opacity:1;stroke:none;stroke-width:4;stroke-linecap:round;stroke-linejoin:round;stroke-miterlimit:4;stroke-dasharray:none;stroke-dashoffset:0;stroke-opacity:1"
       d="m 7.998127,980.36224 h 15.99994 v 61.99996 l -15.99994,-14 z"
       id="rect4274"
       inkscape:connector-curvature="0"
       sodipodi:nodetypes="ccccc" />
    <g
       id="g4388"
       transform="matrix(3.9999848,0,0,3.9999976,-64.001602,-3157.084)">
      <path
         id="path4183-7-0"
         d="m 36.000001,1034.3622 v 12 a 7.9999999,3.9999968 0 0 1 -8,4 7.9999999,3.9999968 0 0 1 -8.000001,-4 v -12 z"
         style="opacity:1;fill:url(#linearGradient4194-0-1);fill-opacity:1;stroke:none;stroke-width:2;stroke-linecap:round;stroke-linejoin:round;stroke-miterlimit:4;stroke-dasharray:none;stroke-dashoffset:0;stroke-opacity:1"
         inkscape:connector-curvature="0" />
    </g>
    <path
       inkscape:connector-curvature="0"
       style="opacity:1;fill:url(#linearGradient4194-3);fill-opacity:1;stroke:none;stroke-width:2;stroke-linecap:round;stroke-linejoin:round;stroke-miterlimit:4;stroke-dasharray:none;stroke-dashoffset:0;stroke-opacity:1"
       d="m 15.998097,980.36224 v 47.99996 a 31.999876,15.999977 0 0 0 31.999873,16 31.999876,15.999977 0 0 0 31.99988,-16 v -47.99996 z"
       id="path4183-5" />
    <ellipse
       style="opacity:1;fill:#ffffff;fill-opacity:1;stroke:none;stroke-width:2;stroke-linecap:round;stroke-linejoin:round;stroke-miterlimit:4;stroke-dasharray:none;stroke-dashoffset:0;stroke-opacity:1"
       id="path4181"
       ry="15.999977"
       rx="31.999874"
       cy="980.36218"
       cx="47.997971" />
    <path
       style="opacity:1;fill:#000000;fill-opacity:1;stroke:none;stroke-width:4;stroke-linecap:round;stroke-linejoin:round;stroke-miterlimit:4;stroke-dasharray:none;stroke-dashoffset:0;stroke-opacity:1"
       d="m 47.99797,964.36225 a 31.999876,15.999989 0 0 0 -31.999877,15.99999 31.999876,15.999989 0 0 0 31.999877,16 31.999876,15.999989 0 0 0 31.99988,-16 31.999876,15.999989 0 0 0 -31.99988,-15.99999 z m 0,8 a 23.999907,7.9999947 0 0 1 2.39843,0.04 23.999907,7.9999947 0 0 1 2.36718,0.116 23.999907,7.9999947 0 0 1 2.32812,0.204 23.999907,7.9999947 0 0 1 2.24999,0.272 23.999907,7.9999947 0 0 1 2.16405,0.344 23.999907,7.9999947 0 0 1 2.04687,0.422 23.999907,7.9999947 0 0 1 1.90624,0.4844 23.999907,7.9999947 0 0 1 1.75781,0.5468 23.999907,7.9999947 0 0 1 1.57812,0.594 23.999907,7.9999947 0 0 1 1.39843,0.656 23.999907,7.9999947 0 0 1 1.1953,0.6956 23.999907,7.9999947 0 0 1 0.97656,0.7264 23.999907,7.9999947 0 0 1 0.75781,0.7576 23.999907,7.9999947 0 0 1 0.52344,0.7816 23.999907,7.9999947 0 0 1 0.28908,0.7968 23.999907,7.9999947 0 0 1 0.0625,0.56239 23.999907,7.9999947 0 0 1 -0.1172,0.7968 23.999907,7.9999947 0 0 1 -0.35936,0.7892 23.999907,7.9999947 0 0 1 -0.59375,0.7812 23.999907,7.9999947 0 0 1 -0.82812,0.75 23.999907,7.9999947 0 0 1 -1.03906,0.7188 23.999907,7.9999947 0 0 1 -1.25781,0.6796 23.999907,7.9999947 0 0 1 -1.4453,0.6408 23.999907,7.9999947 0 0 1 -1.64062,0.5856 23.999907,7.9999947 0 0 1 -1.79687,0.5236 23.999907,7.9999947 0 0 1 -1.95312,0.4688 23.999907,7.9999947 0 0 1 -2.08593,0.4 23.999907,7.9999947 0 0 1 -2.18749,0.32 23.999907,7.9999947 0 0 1 -2.27343,0.256 23.999907,7.9999947 0 0 1 -2.34374,0.172 23.999907,7.9999947 0 0 1 -2.3828,0.092 23.999907,7.9999947 0 0 1 -1.69531,0.04 23.999907,7.9999947 0 0 1 -2.39842,-0.04 23.999907,7.9999947 0 0 1 -2.367184,-0.116 23.999907,7.9999947 0 0 1 -2.32812,-0.204 23.999907,7.9999947 0 0 1 -2.249991,-0.272 23.999907,7.9999947 0 0 1 -2.164052,-0.344 23.999907,7.9999947 0 0 1 -2.046868,-0.422 23.999907,7.9999947 0 0 1 -1.906241,-0.4844 23.999907,7.9999947 0 0 1 -1.757809,-0.5468 23.999907,7.9999947 0 0 1 -1.578118,-0.594 23.999907,7.9999947 0 0 1 -1.398431,-0.656 23.999907,7.9999947 0 0 1 -1.195307,-0.6952 23.999907,7.9999947 0 0 1 -0.976561,-0.7268 23.999907,7.9999947 0 0 1 -0.757809,-0.7576 23.999907,7.9999947 0 0 1 -0.523434,-0.7816 23.999907,7.9999947 0 0 1 -0.289079,-0.7968 23.999907,7.9999947 0 0 1 -0.06252,-0.5624 23.999907,7.9999947 0 0 1 0.117199,-0.79679 23.999907,7.9999947 0 0 1 0.359359,-0.7892 23.999907,7.9999947 0 0 1 0.593746,-0.7812 23.999907,7.9999947 0 0 1 0.820309,-0.75 23.999907,7.9999947 0 0 1 1.046872,-0.7188 23.999907,7.9999947 0 0 1 1.257807,-0.6796 23.999907,7.9999947 0 0 1 1.445306,-0.6408 23.999907,7.9999947 0 0 1 1.640618,-0.5856 23.999907,7.9999947 0 0 1 1.796869,-0.5236 23.999907,7.9999947 0 0 1 1.953117,-0.4688 23.999907,7.9999947 0 0 1 2.085932,-0.4 23.999907,7.9999947 0 0 1 2.187492,-0.32 23.999907,7.9999947 0 0 1 2.273427,-0.256 23.999907,7.9999947 0 0 1 2.343743,-0.172 23.999907,7.9999947 0 0 1 2.382808,-0.092 23.999907,7.9999947 0 0 1 1.6953,-0.04 z"
       id="path4318"
       inkscape:connector-curvature="0" />
    <g
       id="g4294"
       transform="matrix(3.9999848,0,0,3.9999976,-64.001602,-3093.0841)">
      <path
         transform="translate(-9.5367437e-7,1028.3622)"
         id="path4288"
         d="m 18,-10 a 9.9999988,5.9999992 0 0 0 10,6 9.9999988,5.9999992 0 0 0 10,-6 9.9999988,5.9999992 0 0 0 -10,-6 v 4 a 5.9999992,1.9999998 0 0 1 0.599609,0.0098 5.9999992,1.9999998 0 0 1 0.591797,0.0293 5.9999992,1.9999998 0 0 1 0.582032,0.05078 5.9999992,1.9999998 0 0 1 0.5625,0.06836 5.9999992,1.9999998 0 0 1 0.541015,0.08594 5.9999992,1.9999998 0 0 1 0.511719,0.105468 5.9999992,1.9999998 0 0 1 0.476562,0.121094 5.9999992,1.9999998 0 0 1 0.439454,0.136719 5.9999992,1.9999998 0 0 1 0.394531,0.148437 5.9999992,1.9999998 0 0 1 0.349609,0.164063 5.9999992,1.9999998 0 0 1 0.298828,0.173828 5.9999992,1.9999998 0 0 1 0.244141,0.181641 5.9999992,1.9999998 0 0 1 0.189453,0.189453 5.9999992,1.9999998 0 0 1 0.130859,0.195312 5.9999992,1.9999998 0 0 1 0.07227,0.199219 A 5.9999992,1.9999998 0 0 1 34,-10 a 5.9999992,1.9999998 0 0 1 -0.0293,0.1992188 5.9999992,1.9999998 0 0 1 -0.08984,0.1972656 5.9999992,1.9999998 0 0 1 -0.148437,0.1953125 5.9999992,1.9999998 0 0 1 -0.207031,0.1875 5.9999992,1.9999998 0 0 1 -0.259766,0.1796875 5.9999992,1.9999998 0 0 1 -0.314453,0.1699218 5.9999992,1.9999998 0 0 1 -0.361328,0.1601563 5.9999992,1.9999998 0 0 1 -0.410156,0.1464844 5.9999992,1.9999998 0 0 1 -0.449219,0.1308593 5.9999992,1.9999998 0 0 1 -0.488281,0.1171876 5.9999992,1.9999998 0 0 1 -0.521485,0.099609 5.9999992,1.9999998 0 0 1 -0.546875,0.080078 5.9999992,1.9999998 0 0 1 -0.568359,0.064453 5.9999992,1.9999998 0 0 1 -0.585938,0.042969 5.9999992,1.9999998 0 0 1 -0.595703,0.023437 A 5.9999992,1.9999998 0 0 1 28,-8 5.9999992,1.9999998 0 0 1 27.400391,-8.00977 5.9999992,1.9999998 0 0 1 26.808594,-8.039067 5.9999992,1.9999998 0 0 1 26.226562,-8.089848 5.9999992,1.9999998 0 0 1 25.664062,-8.158207 5.9999992,1.9999998 0 0 1 25.123047,-8.244144 5.9999992,1.9999998 0 0 1 24.611328,-8.3496094 5.9999992,1.9999998 0 0 1 24.134766,-8.4707031 5.9999992,1.9999998 0 0 1 23.695312,-8.6074219 5.9999992,1.9999998 0 0 1 23.300781,-8.7558594 5.9999992,1.9999998 0 0 1 22.951172,-8.9199219 5.9999992,1.9999998 0 0 1 22.652344,-9.09375 5.9999992,1.9999998 0 0 1 22.408203,-9.2753906 5.9999992,1.9999998 0 0 1 22.21875,-9.4648438 5.9999992,1.9999998 0 0 1 22.087891,-9.6601562 5.9999992,1.9999998 0 0 1 22.015625,-9.859375 5.9999992,1.9999998 0 0 1 22,-10 Z"
         style="opacity:1;fill:#000000;fill-opacity:1;stroke:none;stroke-width:4;stroke-linecap:round;stroke-linejoin:round;stroke-miterlimit:4;stroke-dasharray:none;stroke-dashoffset:0;stroke-opacity:1"
         inkscape:connector-curvature="0" />
      <circle
         r="2"
         cy="1014.3622"
         cx="27.999998"
         id="path4290"
         style="opacity:1;fill:#000000;fill-opacity:1;stroke:none;stroke-width:4;stroke-linecap:round;stroke-linejoin:round;stroke-miterlimit:4;stroke-dasharray:none;stroke-dashoffset:0;stroke-opacity:1" />
      <ellipse
         ry="1"
         rx="2"
         cy="1018.3622"
         cx="19.999998"
         id="path4292"
         style="opacity:1;fill:#000000;fill-opacity:1;stroke:none;stroke-width:4;stroke-linecap:round;stroke-linejoin:round;stroke-miterlimit:4;stroke-dasharray:none;stroke-dashoffset:0;stroke-opacity:1" />
    </g>
    <ellipse
       style="opacity:1;fill:url(#linearGradient4241);fill-opacity:1;stroke:none;stroke-width:2;stroke-linecap:round;stroke-linejoin:round;stroke-miterlimit:4;stroke-dasharray:none;stroke-dashoffset:0;stroke-opacity:1"
       id="path4181-3"
       ry="15.999979"
       rx="31.999878"
       cy="980.36218"
       cx="47.997971" />
    <ellipse
       style="opacity:1;fill:url(#linearGradient4241-5);fill-opacity:1;stroke:none;stroke-width:4.00000048;stroke-linecap:round;stroke-linejoin:round;stroke-miterlimit:4;stroke-dasharray:none;stroke-dashoffset:0;stroke-opacity:1"
       id="path4181-3-9"
       ry="15.999981"
       rx="31.999878"
       cy="980.36218"
       cx="-47.997971"
       transform="scale(-1,1)" />
    <ellipse
       style="opacity:1;fill:url(#linearGradient4241-5-1);fill-opacity:1;stroke:#000000;stroke-width:0;stroke-linecap:round;stroke-linejoin:round;stroke-miterlimit:4;stroke-dasharray:none;stroke-dashoffset:0;stroke-opacity:1"
       id="path4181-3-9-0"
       ry="15.999981"
       rx="31.999878"
       cy="980.36218"
       cx="-47.997971"
       transform="scale(-1,1)" />
    <ellipse
       style="opacity:1;fill:url(#linearGradient4241-5-1-9);fill-opacity:1;stroke:none;stroke-width:2;stroke-linecap:round;stroke-linejoin:round;stroke-miterlimit:4;stroke-dasharray:none;stroke-dashoffset:0;stroke-opacity:1"
       id="path4181-3-9-0-0"
       ry="15.999981"
       rx="31.999878"
       cy="980.36218"
       cx="-47.997971"
       transform="scale(-1,1)" />
    <ellipse
       style="opacity:1;fill:url(#linearGradient4241-5-1-6);fill-opacity:1;stroke:none;stroke-width:2;stroke-linecap:round;stroke-linejoin:round;stroke-miterlimit:4;stroke-dasharray:none;stroke-dashoffset:0;stroke-opacity:1"
       id="path4181-3-9-0-1"
       ry="15.999981"
       rx="31.999878"
       cy="-980.36218"
       cx="-47.997971"
       transform="scale(-1)" />
    <ellipse
       style="opacity:1;fill:url(#linearGradient4241-5-1-6-8);fill-opacity:1;stroke:none;stroke-width:2;stroke-linecap:round;stroke-linejoin:round;stroke-miterlimit:4;stroke-dasharray:none;stroke-dashoffset:0;stroke-opacity:1"
       id="path4181-3-9-0-1-2"
       ry="15.999981"
       rx="31.999878"
       cy="-980.36218"
       cx="47.997971"
       transform="scale(1,-1)" />
  </g>
</svg>
