<?xml version="1.0" encoding="UTF-8" standalone="no"?>
<!-- Created with Inkscape (http://www.inkscape.org/) -->

<svg
   xmlns:dc="http://purl.org/dc/elements/1.1/"
   xmlns:cc="http://creativecommons.org/ns#"
   xmlns:rdf="http://www.w3.org/1999/02/22-rdf-syntax-ns#"
   xmlns:svg="http://www.w3.org/2000/svg"
   xmlns="http://www.w3.org/2000/svg"
   xmlns:xlink="http://www.w3.org/1999/xlink"
   xmlns:sodipodi="http://sodipodi.sourceforge.net/DTD/sodipodi-0.dtd"
   xmlns:inkscape="http://www.inkscape.org/namespaces/inkscape"
   width="24"
   height="24"
   viewBox="0 0 24 24.000001"
   id="svg2"
   version="1.1"
   inkscape:version="0.91 r"
   sodipodi:docname="logo_exp.svg">
  <defs
     id="defs4">
    <linearGradient
       inkscape:collect="always"
       id="linearGradient4382">
      <stop
         style="stop-color:#0000ff;stop-opacity:1"
         offset="0"
         id="stop4384" />
      <stop
         style="stop-color:#0000ff;stop-opacity:0"
         offset="1"
         id="stop4386" />
    </linearGradient>
    <linearGradient
       id="linearGradient4429"
       inkscape:collect="always">
      <stop
         id="stop4431"
         offset="0"
         style="stop-color:#ff0000;stop-opacity:1" />
      <stop
         id="stop4433"
         offset="1"
         style="stop-color:#ff0000;stop-opacity:0" />
    </linearGradient>
    <linearGradient
       inkscape:collect="always"
       id="linearGradient4399">
      <stop
         style="stop-color:#00ff00;stop-opacity:1"
         offset="0"
         id="stop4401" />
      <stop
         style="stop-color:#00ff00;stop-opacity:0"
         offset="1"
         id="stop4403" />
    </linearGradient>
    <linearGradient
       id="linearGradient4369"
       inkscape:collect="always">
      <stop
         id="stop4371"
         offset="0"
         style="stop-color:#ffff00;stop-opacity:1" />
      <stop
         id="stop4373"
         offset="1"
         style="stop-color:#ffff00;stop-opacity:0" />
    </linearGradient>
    <linearGradient
       id="linearGradient4339"
       inkscape:collect="always">
      <stop
         id="stop4341"
         offset="0"
         style="stop-color:#ff0000;stop-opacity:1" />
      <stop
         id="stop4343"
         offset="1"
         style="stop-color:#ff0000;stop-opacity:0" />
    </linearGradient>
    <linearGradient
       inkscape:collect="always"
       id="linearGradient4309">
      <stop
         style="stop-color:#ff00ff;stop-opacity:1"
         offset="0"
         id="stop4311" />
      <stop
         style="stop-color:#ff00ff;stop-opacity:0"
         offset="1"
         id="stop4313" />
    </linearGradient>
    <linearGradient
       id="linearGradient4279"
       inkscape:collect="always">
      <stop
         id="stop4281"
         offset="0"
         style="stop-color:#0000ff;stop-opacity:1" />
      <stop
         id="stop4283"
         offset="1"
         style="stop-color:#00ffff;stop-opacity:0" />
    </linearGradient>
    <linearGradient
       inkscape:collect="always"
       id="linearGradient4249">
      <stop
         style="stop-color:#00ffff;stop-opacity:1"
         offset="0"
         id="stop4251" />
      <stop
         style="stop-color:#00ffff;stop-opacity:0"
         offset="1"
         id="stop4253" />
    </linearGradient>
    <linearGradient
       id="linearGradient4220"
       inkscape:collect="always">
      <stop
         id="stop4222"
         offset="0"
         style="stop-color:#000000;stop-opacity:1" />
      <stop
         id="stop4224"
         offset="1"
         style="stop-color:#000000;stop-opacity:0" />
    </linearGradient>
    <linearGradient
       inkscape:collect="always"
       id="linearGradient4188">
      <stop
         style="stop-color:#0000ff;stop-opacity:1"
         offset="0"
         id="stop4190" />
      <stop
         style="stop-color:#ff00ff;stop-opacity:1"
         offset="1"
         id="stop4192" />
    </linearGradient>
    <linearGradient
       gradientTransform="matrix(1.3333333,0,0,0.99999914,-3.9999997,1028.3622)"
       inkscape:collect="always"
       xlink:href="#linearGradient4220"
       id="linearGradient4194-3"
       x1="12.000001"
       y1="22.000002"
       x2="12.000001"
       y2="10.000001"
       gradientUnits="userSpaceOnUse" />
    <linearGradient
       inkscape:collect="always"
       xlink:href="#linearGradient4249"
       id="linearGradient4241"
       x1="5.9999995"
       y1="1038.3622"
       x2="12"
       y2="1034.3622"
       gradientUnits="userSpaceOnUse"
       gradientTransform="matrix(1.3333332,0,0,0.99999914,-3.9999976,9.0039034e-4)" />
    <linearGradient
       gradientTransform="matrix(1.3333332,0,0,0.99999914,-27.999998,8.3961921e-4)"
       inkscape:collect="always"
       xlink:href="#linearGradient4279"
       id="linearGradient4241-5"
       x1="14"
       y1="1038.3623"
       x2="12"
       y2="1034.3622"
       gradientUnits="userSpaceOnUse" />
    <linearGradient
       gradientTransform="matrix(1.3333332,0,0,0.99999914,-27.999998,8.3944609e-4)"
       inkscape:collect="always"
       xlink:href="#linearGradient4309"
       id="linearGradient4241-5-1"
       x1="10"
       y1="1038.3623"
       x2="12"
       y2="1034.3622"
       gradientUnits="userSpaceOnUse" />
    <linearGradient
       gradientTransform="matrix(1.3333332,0,0,0.99999914,-27.999998,8.3944609e-4)"
       inkscape:collect="always"
       xlink:href="#linearGradient4339"
       id="linearGradient4241-5-1-9"
       x1="6"
       y1="1034.3623"
       x2="12"
       y2="1034.3622"
       gradientUnits="userSpaceOnUse" />
    <linearGradient
       gradientTransform="matrix(1.3333332,0,0,0.99999914,-27.999998,-2068.7235)"
       inkscape:collect="always"
       xlink:href="#linearGradient4369"
       id="linearGradient4241-5-1-6"
       x1="10"
       y1="1038.3623"
       x2="12"
       y2="1034.3622"
       gradientUnits="userSpaceOnUse" />
    <linearGradient
       gradientTransform="matrix(1.3333332,0,0,0.99999914,-3.9999976,-2068.7236)"
       inkscape:collect="always"
       xlink:href="#linearGradient4399"
       id="linearGradient4241-5-1-6-8"
       x1="10"
       y1="1038.3623"
       x2="12"
       y2="1034.3622"
       gradientUnits="userSpaceOnUse" />
    <linearGradient
       gradientTransform="matrix(1.3333333,0,0,0.99999914,-3.9999997,1028.3622)"
       inkscape:collect="always"
       xlink:href="#linearGradient4429"
       id="linearGradient4194-0"
       x1="18.000002"
       y1="10.000001"
       x2="12.000001"
       y2="10.000001"
       gradientUnits="userSpaceOnUse" />
    <linearGradient
       inkscape:collect="always"
       xlink:href="#linearGradient4188"
       id="linearGradient4194-6"
       x1="6.0000005"
       y1="10.000001"
       x2="12.000001"
       y2="10.000001"
       gradientUnits="userSpaceOnUse"
       gradientTransform="matrix(1.3333334,0,0,0.9999992,-3.9999997,1028.3622)" />
    <linearGradient
       gradientTransform="matrix(-1.3333334,0,0,0.9999992,44,1028.3622)"
       inkscape:collect="always"
       xlink:href="#linearGradient4382"
       id="linearGradient4194-0-1"
       x1="18.000002"
       y1="10.000001"
       x2="12.000001"
       y2="10.000001"
       gradientUnits="userSpaceOnUse" />
  </defs>
  <sodipodi:namedview
     id="base"
     pagecolor="#ffffff"
     bordercolor="#666666"
     borderopacity="1.0"
     inkscape:pageopacity="0.0"
     inkscape:pageshadow="2"
     inkscape:zoom="22.627417"
     inkscape:cx="13.934803"
     inkscape:cy="15.569361"
     inkscape:document-units="px"
     inkscape:current-layer="layer1"
     showgrid="true"
     units="px"
     inkscape:window-width="1920"
     inkscape:window-height="1080"
     inkscape:window-x="0"
     inkscape:window-y="0"
     inkscape:window-maximized="1"
     showguides="false">
    <inkscape:grid
       type="xygrid"
       id="grid4136"
       spacingx="2"
       spacingy="2.0000001"
       empspacing="4" />
  </sodipodi:namedview>
  <metadata
     id="metadata7">
    <rdf:RDF>
      <cc:Work
         rdf:about="">
        <dc:format>image/svg+xml</dc:format>
        <dc:type
           rdf:resource="http://purl.org/dc/dcmitype/StillImage" />
        <dc:title></dc:title>
      </cc:Work>
    </rdf:RDF>
  </metadata>
  <g
     inkscape:label="Layer 1"
     inkscape:groupmode="layer"
     id="layer1"
     transform="translate(0,-1028.3622)">
    <path
       style="opacity:1;fill:url(#linearGradient4194-6);fill-opacity:1;stroke:none;stroke-width:4.00000048;stroke-linecap:round;stroke-linejoin:round;stroke-miterlimit:4;stroke-dasharray:none;stroke-dashoffset:0;stroke-opacity:1"
       d="m 3.9999996,1034.3622 0,12 a 7.9999994,3.9999966 0 0 0 8.0000004,4 7.9999994,3.9999966 0 0 0 8,-4 l 0,-12 -16.0000004,0 z"
       id="path4183-3"
       inkscape:connector-curvature="0" />
    <path
       style="fill:#000000;fill-rule:evenodd;stroke:none;stroke-width:1.00000006;stroke-linecap:butt;stroke-linejoin:miter;stroke-opacity:1;fill-opacity:1;stroke-miterlimit:4;stroke-dasharray:none"
       d="m 17.999999,1038.3622 2,-2 0,10 -2,0 z"
       id="path4325"
       inkscape:connector-curvature="0" />
    <path
       inkscape:connector-curvature="0"
       style="opacity:1;fill:url(#linearGradient4194-0);fill-opacity:1;stroke:none;stroke-width:2;stroke-linecap:round;stroke-linejoin:round;stroke-miterlimit:4;stroke-dasharray:none;stroke-dashoffset:0;stroke-opacity:1"
       d="m 3.9999996,1034.3622 0,12 a 7.9999994,3.9999966 0 0 0 7.9999994,4 7.9999994,3.9999966 0 0 0 8.000001,-4 l 0,-12 -16.0000004,0 z"
       id="path4183-7" />
    <path
       style="opacity:1;fill:#000000;fill-opacity:1;stroke:none;stroke-width:4;stroke-linecap:round;stroke-linejoin:round;stroke-miterlimit:4;stroke-dasharray:none;stroke-dashoffset:0;stroke-opacity:1"
       d="m 1.9999996,1034.3622 4,0 0,12 -4,0 z"
       id="rect4274" />
    <g
       id="g4388"
       transform="translate(-16.000001,0)">
      <path
         id="path4183-7-0"
         d="m 36.000001,1034.3622 0,12 a 7.9999999,3.9999968 0 0 1 -8,4 7.9999999,3.9999968 0 0 1 -8.000001,-4 l 0,-12 16.000001,0 z"
         style="opacity:1;fill:url(#linearGradient4194-0-1);fill-opacity:1;stroke:none;stroke-width:2;stroke-linecap:round;stroke-linejoin:round;stroke-miterlimit:4;stroke-dasharray:none;stroke-dashoffset:0;stroke-opacity:1"
         inkscape:connector-curvature="0" />
    </g>
    <path
       inkscape:connector-curvature="0"
       style="opacity:1;fill:url(#linearGradient4194-3);fill-opacity:1;stroke:none;stroke-width:2;stroke-linecap:round;stroke-linejoin:round;stroke-miterlimit:4;stroke-dasharray:none;stroke-dashoffset:0;stroke-opacity:1"
       d="m 3.9999996,1034.3622 0,12 a 7.9999994,3.9999966 0 0 0 7.9999994,4 7.9999994,3.9999966 0 0 0 8.000001,-4 l 0,-12 -16.0000004,0 z"
       id="path4183-5" />
    <ellipse
       style="opacity:1;fill:#ffffff;fill-opacity:1;stroke:none;stroke-width:2;stroke-linecap:round;stroke-linejoin:round;stroke-miterlimit:4;stroke-dasharray:none;stroke-dashoffset:0;stroke-opacity:1"
       id="path4181"
       ry="3.9999967"
       rx="7.999999"
       cy="1034.3622"
       cx="11.999999" />
    <path
       style="opacity:1;fill:#000000;fill-opacity:1;stroke:none;stroke-width:4;stroke-linecap:round;stroke-linejoin:round;stroke-miterlimit:4;stroke-dasharray:none;stroke-dashoffset:0;stroke-opacity:1"
       d="m 11.999999,1030.3622 a 7.9999995,3.9999998 0 0 0 -8.0000004,4 7.9999995,3.9999998 0 0 0 8.0000004,4 7.9999995,3.9999998 0 0 0 8,-4 7.9999995,3.9999998 0 0 0 -8,-4 z m 0,2 a 5.9999996,1.9999999 0 0 1 0.599609,0.01 5.9999996,1.9999999 0 0 1 0.591797,0.029 5.9999996,1.9999999 0 0 1 0.582032,0.051 5.9999996,1.9999999 0 0 1 0.5625,0.068 5.9999996,1.9999999 0 0 1 0.541015,0.086 5.9999996,1.9999999 0 0 1 0.511719,0.1055 5.9999996,1.9999999 0 0 1 0.476562,0.1211 5.9999996,1.9999999 0 0 1 0.439454,0.1367 5.9999996,1.9999999 0 0 1 0.394531,0.1485 5.9999996,1.9999999 0 0 1 0.349609,0.164 5.9999996,1.9999999 0 0 1 0.298828,0.1739 5.9999996,1.9999999 0 0 1 0.244141,0.1816 5.9999996,1.9999999 0 0 1 0.189453,0.1894 5.9999996,1.9999999 0 0 1 0.130859,0.1954 5.9999996,1.9999999 0 0 1 0.07227,0.1992 5.9999996,1.9999999 0 0 1 0.01563,0.1406 5.9999996,1.9999999 0 0 1 -0.0293,0.1992 5.9999996,1.9999999 0 0 1 -0.08984,0.1973 5.9999996,1.9999999 0 0 1 -0.148437,0.1953 5.9999996,1.9999999 0 0 1 -0.207031,0.1875 5.9999996,1.9999999 0 0 1 -0.259766,0.1797 5.9999996,1.9999999 0 0 1 -0.314453,0.1699 5.9999996,1.9999999 0 0 1 -0.361328,0.1602 5.9999996,1.9999999 0 0 1 -0.410156,0.1464 5.9999996,1.9999999 0 0 1 -0.449219,0.1309 5.9999996,1.9999999 0 0 1 -0.488281,0.1172 5.9999996,1.9999999 0 0 1 -0.521485,0.1 5.9999996,1.9999999 0 0 1 -0.546875,0.08 5.9999996,1.9999999 0 0 1 -0.568359,0.064 5.9999996,1.9999999 0 0 1 -0.585938,0.043 5.9999996,1.9999999 0 0 1 -0.595703,0.023 5.9999996,1.9999999 0 0 1 -0.423828,0.01 5.9999996,1.9999999 0 0 1 -0.599609,-0.01 5.9999996,1.9999999 0 0 1 -0.591797,-0.029 5.9999996,1.9999999 0 0 1 -0.582032,-0.051 5.9999996,1.9999999 0 0 1 -0.5625001,-0.068 5.9999996,1.9999999 0 0 1 -0.541015,-0.086 5.9999996,1.9999999 0 0 1 -0.511719,-0.1055 5.9999996,1.9999999 0 0 1 -0.476562,-0.1211 5.9999996,1.9999999 0 0 1 -0.4394541,-0.1367 5.9999996,1.9999999 0 0 1 -0.394531,-0.1485 5.9999996,1.9999999 0 0 1 -0.349609,-0.164 5.9999996,1.9999999 0 0 1 -0.298828,-0.1738 5.9999996,1.9999999 0 0 1 -0.244141,-0.1817 5.9999996,1.9999999 0 0 1 -0.189453,-0.1894 5.9999996,1.9999999 0 0 1 -0.130859,-0.1954 5.9999996,1.9999999 0 0 1 -0.07227,-0.1992 5.9999996,1.9999999 0 0 1 -0.01563,-0.1406 5.9999996,1.9999999 0 0 1 0.0293,-0.1992 5.9999996,1.9999999 0 0 1 0.08984,-0.1973 5.9999996,1.9999999 0 0 1 0.148437,-0.1953 5.9999996,1.9999999 0 0 1 0.205078,-0.1875 5.9999996,1.9999999 0 0 1 0.261719,-0.1797 5.9999996,1.9999999 0 0 1 0.314453,-0.1699 5.9999996,1.9999999 0 0 1 0.361328,-0.1602 5.9999996,1.9999999 0 0 1 0.410156,-0.1464 5.9999996,1.9999999 0 0 1 0.4492191,-0.1309 5.9999996,1.9999999 0 0 1 0.488281,-0.1172 5.9999996,1.9999999 0 0 1 0.521485,-0.1 5.9999996,1.9999999 0 0 1 0.546875,-0.08 5.9999996,1.9999999 0 0 1 0.5683591,-0.064 5.9999996,1.9999999 0 0 1 0.585938,-0.043 5.9999996,1.9999999 0 0 1 0.595703,-0.023 5.9999996,1.9999999 0 0 1 0.423828,-0.01 z"
       id="path4318"
       inkscape:connector-curvature="0" />
    <g
       id="g4294"
       transform="translate(-16.000001,16.000001)">
      <path
         transform="translate(-9.5367437e-7,1028.3622)"
         id="path4288"
         d="m 18,-10 a 9.9999988,5.9999992 0 0 0 10,6 9.9999988,5.9999992 0 0 0 10,-6 9.9999988,5.9999992 0 0 0 -10,-6 l 0,4 a 5.9999992,1.9999998 0 0 1 0.599609,0.0098 5.9999992,1.9999998 0 0 1 0.591797,0.0293 5.9999992,1.9999998 0 0 1 0.582032,0.05078 5.9999992,1.9999998 0 0 1 0.5625,0.06836 5.9999992,1.9999998 0 0 1 0.541015,0.08594 5.9999992,1.9999998 0 0 1 0.511719,0.105468 5.9999992,1.9999998 0 0 1 0.476562,0.121094 5.9999992,1.9999998 0 0 1 0.439454,0.136719 5.9999992,1.9999998 0 0 1 0.394531,0.148437 5.9999992,1.9999998 0 0 1 0.349609,0.164063 5.9999992,1.9999998 0 0 1 0.298828,0.173828 5.9999992,1.9999998 0 0 1 0.244141,0.181641 5.9999992,1.9999998 0 0 1 0.189453,0.189453 5.9999992,1.9999998 0 0 1 0.130859,0.195312 5.9999992,1.9999998 0 0 1 0.07227,0.199219 A 5.9999992,1.9999998 0 0 1 34,-10 a 5.9999992,1.9999998 0 0 1 -0.0293,0.1992188 5.9999992,1.9999998 0 0 1 -0.08984,0.1972656 5.9999992,1.9999998 0 0 1 -0.148437,0.1953125 5.9999992,1.9999998 0 0 1 -0.207031,0.1875 5.9999992,1.9999998 0 0 1 -0.259766,0.1796875 5.9999992,1.9999998 0 0 1 -0.314453,0.1699218 5.9999992,1.9999998 0 0 1 -0.361328,0.1601563 5.9999992,1.9999998 0 0 1 -0.410156,0.1464844 5.9999992,1.9999998 0 0 1 -0.449219,0.1308593 5.9999992,1.9999998 0 0 1 -0.488281,0.1171876 5.9999992,1.9999998 0 0 1 -0.521485,0.099609 5.9999992,1.9999998 0 0 1 -0.546875,0.080078 5.9999992,1.9999998 0 0 1 -0.568359,0.064453 5.9999992,1.9999998 0 0 1 -0.585938,0.042969 5.9999992,1.9999998 0 0 1 -0.595703,0.023437 A 5.9999992,1.9999998 0 0 1 28,-8 5.9999992,1.9999998 0 0 1 27.400391,-8.00977 5.9999992,1.9999998 0 0 1 26.808594,-8.039067 5.9999992,1.9999998 0 0 1 26.226562,-8.089848 5.9999992,1.9999998 0 0 1 25.664062,-8.158207 5.9999992,1.9999998 0 0 1 25.123047,-8.244144 5.9999992,1.9999998 0 0 1 24.611328,-8.3496094 5.9999992,1.9999998 0 0 1 24.134766,-8.4707031 5.9999992,1.9999998 0 0 1 23.695312,-8.6074219 5.9999992,1.9999998 0 0 1 23.300781,-8.7558594 5.9999992,1.9999998 0 0 1 22.951172,-8.9199219 5.9999992,1.9999998 0 0 1 22.652344,-9.09375 5.9999992,1.9999998 0 0 1 22.408203,-9.2753906 5.9999992,1.9999998 0 0 1 22.21875,-9.4648438 5.9999992,1.9999998 0 0 1 22.087891,-9.6601562 5.9999992,1.9999998 0 0 1 22.015625,-9.859375 5.9999992,1.9999998 0 0 1 22,-10 l -4,0 z"
         style="opacity:1;fill:#000000;fill-opacity:1;stroke:none;stroke-width:4;stroke-linecap:round;stroke-linejoin:round;stroke-miterlimit:4;stroke-dasharray:none;stroke-dashoffset:0;stroke-opacity:1"
         inkscape:connector-curvature="0" />
      <circle
         r="2"
         cy="1014.3622"
         cx="27.999998"
         id="path4290"
         style="opacity:1;fill:#000000;fill-opacity:1;stroke:none;stroke-width:4;stroke-linecap:round;stroke-linejoin:round;stroke-miterlimit:4;stroke-dasharray:none;stroke-dashoffset:0;stroke-opacity:1" />
      <ellipse
         ry="1"
         rx="2"
         cy="1018.3622"
         cx="19.999998"
         id="path4292"
         style="opacity:1;fill:#000000;fill-opacity:1;stroke:none;stroke-width:4;stroke-linecap:round;stroke-linejoin:round;stroke-miterlimit:4;stroke-dasharray:none;stroke-dashoffset:0;stroke-opacity:1" />
    </g>
    <ellipse
       style="opacity:1;fill:url(#linearGradient4241);fill-opacity:1;stroke:none;stroke-width:2;stroke-linecap:round;stroke-linejoin:round;stroke-miterlimit:4;stroke-dasharray:none;stroke-dashoffset:0;stroke-opacity:1"
       id="path4181-3"
       ry="3.9999971"
       rx="8"
       cy="1034.3622"
       cx="11.999999" />
    <ellipse
       style="opacity:1;fill:url(#linearGradient4241-5);fill-opacity:1;stroke:none;stroke-width:4.00000048;stroke-linecap:round;stroke-linejoin:round;stroke-miterlimit:4;stroke-dasharray:none;stroke-dashoffset:0;stroke-opacity:1"
       id="path4181-3-9"
       ry="3.9999976"
       rx="8"
       cy="1034.3622"
       cx="-12"
       transform="scale(-1,1)" />
    <ellipse
       style="opacity:1;fill:url(#linearGradient4241-5-1);fill-opacity:1;stroke:#000000;stroke-width:0;stroke-linecap:round;stroke-linejoin:round;stroke-miterlimit:4;stroke-dasharray:none;stroke-dashoffset:0;stroke-opacity:1"
       id="path4181-3-9-0"
       ry="3.9999976"
       rx="8"
       cy="1034.3622"
       cx="-12"
       transform="scale(-1,1)" />
    <ellipse
       style="opacity:1;fill:url(#linearGradient4241-5-1-9);fill-opacity:1;stroke:none;stroke-width:2;stroke-linecap:round;stroke-linejoin:round;stroke-miterlimit:4;stroke-dasharray:none;stroke-dashoffset:0;stroke-opacity:1"
       id="path4181-3-9-0-0"
       ry="3.9999976"
       rx="8"
       cy="1034.3622"
       cx="-12"
       transform="scale(-1,1)" />
    <ellipse
       style="opacity:1;fill:url(#linearGradient4241-5-1-6);fill-opacity:1;stroke:none;stroke-width:2;stroke-linecap:round;stroke-linejoin:round;stroke-miterlimit:4;stroke-dasharray:none;stroke-dashoffset:0;stroke-opacity:1"
       id="path4181-3-9-0-1"
       ry="3.9999976"
       rx="8"
       cy="-1034.3622"
       cx="-12"
       transform="scale(-1,-1)" />
    <ellipse
       style="opacity:1;fill:url(#linearGradient4241-5-1-6-8);fill-opacity:1;stroke:none;stroke-width:2;stroke-linecap:round;stroke-linejoin:round;stroke-miterlimit:4;stroke-dasharray:none;stroke-dashoffset:0;stroke-opacity:1"
       id="path4181-3-9-0-1-2"
       ry="3.9999976"
       rx="8"
       cy="-1034.3622"
       cx="12"
       transform="scale(1,-1)" />
    <g
       id="g4408"
       transform="translate(0,-8.0000004)">
      <path
         inkscape:connector-curvature="0"
         id="path4182"
         d="m 1.999998,1054.3622 a 9.9999988,5.9999992 0 0 0 10,6 9.9999988,5.9999992 0 0 0 10,-6 l -4,0 a 5.9999992,1.9999998 0 0 1 -0.0293,0.1992 5.9999992,1.9999998 0 0 1 -0.08984,0.1973 5.9999992,1.9999998 0 0 1 -0.148437,0.1953 5.9999992,1.9999998 0 0 1 -0.207031,0.1875 5.9999992,1.9999998 0 0 1 -0.259766,0.1797 5.9999992,1.9999998 0 0 1 -0.314453,0.1699 5.9999992,1.9999998 0 0 1 -0.361328,0.1602 5.9999992,1.9999998 0 0 1 -0.410156,0.1464 5.9999992,1.9999998 0 0 1 -0.449219,0.1309 5.9999992,1.9999998 0 0 1 -0.488281,0.1172 5.9999992,1.9999998 0 0 1 -0.521485,0.1 5.9999992,1.9999998 0 0 1 -0.546875,0.08 5.9999992,1.9999998 0 0 1 -0.568359,0.064 5.9999992,1.9999998 0 0 1 -0.585938,0.043 5.9999992,1.9999998 0 0 1 -0.595703,0.023 5.9999992,1.9999998 0 0 1 -0.423828,0.01 5.9999992,1.9999998 0 0 1 -0.599609,-0.01 5.9999992,1.9999998 0 0 1 -0.591797,-0.029 5.9999992,1.9999998 0 0 1 -0.582032,-0.051 5.9999992,1.9999998 0 0 1 -0.5625,-0.068 5.9999992,1.9999998 0 0 1 -0.541015,-0.086 5.9999992,1.9999998 0 0 1 -0.511719,-0.1055 5.9999992,1.9999998 0 0 1 -0.476562,-0.1211 5.9999992,1.9999998 0 0 1 -0.439454,-0.1367 5.9999992,1.9999998 0 0 1 -0.394531,-0.1485 5.9999992,1.9999998 0 0 1 -0.349609,-0.164 5.9999992,1.9999998 0 0 1 -0.298828,-0.1738 5.9999992,1.9999998 0 0 1 -0.244141,-0.1817 5.9999992,1.9999998 0 0 1 -0.189453,-0.1894 5.9999992,1.9999998 0 0 1 -0.130859,-0.1954 5.9999992,1.9999998 0 0 1 -0.07227,-0.1992 5.9999992,1.9999998 0 0 1 -0.01563,-0.1406 l -4,0 z"
         style="opacity:1;fill:#000000;fill-opacity:1;stroke:none;stroke-width:4;stroke-linecap:round;stroke-linejoin:round;stroke-miterlimit:4;stroke-dasharray:none;stroke-dashoffset:0;stroke-opacity:1" />
      <ellipse
         ry="1.0000001"
         rx="2.0000002"
         cy="1054.3622"
         cx="19.999998"
         id="path4209-3"
         style="opacity:1;fill:#000000;fill-opacity:1;stroke:none;stroke-width:4;stroke-linecap:round;stroke-linejoin:round;stroke-miterlimit:4;stroke-dasharray:none;stroke-dashoffset:0;stroke-opacity:1" />
      <ellipse
         ry="1.0000002"
         rx="2.0000005"
         cy="1054.3622"
         cx="3.9999979"
         id="path4209-3-9"
         style="opacity:1;fill:#000000;fill-opacity:1;stroke:none;stroke-width:4;stroke-linecap:round;stroke-linejoin:round;stroke-miterlimit:4;stroke-dasharray:none;stroke-dashoffset:0;stroke-opacity:1" />
    </g>
  </g>
</svg>
